<?xml version="1.0" encoding="utf-8"?>
<!-- Generator: Adobe Illustrator 25.3.1, SVG Export Plug-In . SVG Version: 6.00 Build 0)  -->
<svg version="1.1" id="Calque_1" xmlns="http://www.w3.org/2000/svg" xmlns:xlink="http://www.w3.org/1999/xlink" x="0px" y="0px"
	 viewBox="0 0 43.3 25.3" style="enable-background:new 0 0 43.3 25.3;" xml:space="preserve">
<style type="text/css">
	.st0{fill:#F0F8FF;}
</style>
<g id="Calque_2_1_">
	<g id="Calque_1-2">
		<path class="st0" d="M43.3,3.6c0,0.4-0.2,0.7-0.4,1L22.7,24.9c-0.3,0.3-0.6,0.4-1,0.4c-0.4,0-0.7-0.2-1-0.4L0.4,4.6
			c-0.6-0.5-0.6-1.4-0.1-1.9c0,0,0.1-0.1,0.1-0.1l2.2-2.2C2.9,0.2,3.2,0,3.6,0c0.4,0,0.7,0.2,1,0.4l17.1,17.1L38.8,0.4
			C39,0.2,39.4,0,39.8,0c0.4,0,0.7,0.2,1,0.4l2.2,2.2C43.2,2.9,43.3,3.2,43.3,3.6L43.3,3.6z"/>
	</g>
</g>
</svg>
