<svg xmlns="http://www.w3.org/2000/svg" viewBox="0 0 44.09 35.76"><defs><style>.cls-1{fill:#3c3c3b;}</style></defs><g id="Calque_2" data-name="Calque 2"><g id="Calque_1-2" data-name="Calque 1"><rect class="cls-1" x="1.22" y="1.21" width="41.66" height="4.17"/><path class="cls-1" d="M42.88,6.59H1.22A1.22,1.22,0,0,1,0,5.38V1.21A1.22,1.22,0,0,1,1.22,0H42.88a1.21,1.21,0,0,1,1.21,1.21V5.38A1.21,1.21,0,0,1,42.88,6.59ZM2.43,4.17H41.66V2.43H2.43Z"/><rect class="cls-1" x="1.22" y="15.79" width="41.66" height="4.17"/><path class="cls-1" d="M42.88,21.17H1.22A1.22,1.22,0,0,1,0,20V15.79a1.22,1.22,0,0,1,1.22-1.21H42.88a1.21,1.21,0,0,1,1.21,1.21V20A1.21,1.21,0,0,1,42.88,21.17ZM2.43,18.75H41.66V17H2.43Z"/><rect class="cls-1" x="1.22" y="30.38" width="41.66" height="4.17"/><path class="cls-1" d="M42.88,35.76H1.22A1.22,1.22,0,0,1,0,34.54H0V30.38a1.22,1.22,0,0,1,1.22-1.22H42.88a1.22,1.22,0,0,1,1.21,1.22v4.16A1.22,1.22,0,0,1,42.88,35.76ZM2.43,33.33H41.66V31.59H2.43Z"/></g></g></svg>