<svg xmlns="http://www.w3.org/2000/svg" viewBox="0 0 81.93 81.93"><defs><style>.cls-1{fill:#f0f8ff;}.cls-2{fill:#3c3c3b;}</style></defs><g id="Calque_2" data-name="Calque 2"><g id="Calque_1-2" data-name="Calque 1"><circle class="cls-1" cx="40.97" cy="40.97" r="40.97"/><g id="Calque_2-2" data-name="Calque 2"><g id="Calque_1-2-2" data-name="Calque 1-2"><path class="cls-2" d="M63.59,49.12h2.22V39.24H17.59a1.49,1.49,0,0,1-.74-.2,2.13,2.13,0,0,1-.7.18v9.9h1.67a2.27,2.27,0,0,1,2.28,2.26h0v.18h0a5.72,5.72,0,0,0,1.64,4l.08.1a5.69,5.69,0,0,0,9.65-4.06v-.18a2.23,2.23,0,0,1,2.22-2.18H47.82a2.24,2.24,0,0,1,2.24,2.26h0v.18h0a5.73,5.73,0,0,0,1.67,4l.08.06a5.69,5.69,0,0,0,9.61-4v-.26a2.23,2.23,0,0,1,2.22-2.24h0Zm-7.93.19h0a2.26,2.26,0,1,1-2.26,2.26h0a2.26,2.26,0,0,1,2.26-2.26h0Zm-30,0h0a2.26,2.26,0,1,1-2.25,2.27h0a2.27,2.27,0,0,1,2.26-2.27Zm42.41,4.3H65.59a10.29,10.29,0,0,1-2.74,5.13h0a10.2,10.2,0,0,1-14.26.1l-.13-.12a9.94,9.94,0,0,1-2.77-5.16h-10A10.07,10.07,0,0,1,33,58.69h0a10.21,10.21,0,0,1-14.29.1l-.09-.12a10,10,0,0,1-2.8-5.16H13.87a2.24,2.24,0,0,1-2.28-2.18h0V37a2.26,2.26,0,0,1,2.22-2.3h.68l6.15-13a2.21,2.21,0,0,1,2.11-1.43H50.51a2.21,2.21,0,0,1,2,1.29l6.2,13.1H68.1a2.24,2.24,0,0,1,2.24,2.24h0V51.31a2.2,2.2,0,0,1-2.18,2.22h0Z"/></g></g></g></g></svg>