<?xml version="1.0" encoding="utf-8"?>
<!-- Generator: Adobe Illustrator 25.3.1, SVG Export Plug-In . SVG Version: 6.00 Build 0)  -->
<svg version="1.1" id="Calque_1" xmlns="http://www.w3.org/2000/svg" xmlns:xlink="http://www.w3.org/1999/xlink" x="0px" y="0px"
	 viewBox="0 0 43.6 43.5" style="enable-background:new 0 0 43.6 43.5;" xml:space="preserve">
<style type="text/css">
	.st0{fill:#AD2336;}
</style>
<g id="Calque_2_1_">
	<g id="Calque_1-2">
		<path class="st0" d="M0,2.2v39.2c0,1.2,1,2.2,2.2,2.2c0,0,0,0,0,0h39.2c1.2,0,2.2-0.9,2.2-2.1c0,0,0,0,0,0V2.2
			c0-1.2-1-2.2-2.2-2.2H2.2C1,0,0,0.9,0,2.2L0,2.2z M23,21.8l-4.2-4.2c-0.5-0.4-0.5-1.1-0.1-1.5c0.4-0.5,1.1-0.5,1.5-0.1
			c0.1,0,0.1,0.1,0.1,0.1l5.8,5.8l-5.8,5.8c-0.4,0.4-1.1,0.4-1.5,0c-0.4-0.4-0.4-1.1,0-1.5l0,0L23,21.8z"/>
	</g>
</g>
</svg>
