<?xml version="1.0" encoding="utf-8"?>
<!-- Generator: Adobe Illustrator 25.3.1, SVG Export Plug-In . SVG Version: 6.00 Build 0)  -->
<svg version="1.1" id="Calque_1" xmlns="http://www.w3.org/2000/svg" xmlns:xlink="http://www.w3.org/1999/xlink" x="0px" y="0px"
	 viewBox="0 0 43.5 43.5" style="enable-background:new 0 0 43.5 43.5;" xml:space="preserve">
<style type="text/css">
	.st0{fill:#AD2336;}
</style>
<g id="Calque_2_1_">
	<g id="Calque_1-2">
		<g id="Calque_2-2">
			<g id="Calque_1-2-2">
				<path class="st0" d="M41.4,0H2.2C1,0,0,1,0,2.2v39.2c0,1.2,1,2.2,2.2,2.2h39.2c1.2,0,2.2-1,2.2-2.2c0,0,0,0,0,0V2.2
					C43.5,1,42.6,0,41.4,0z M24.7,26c0.4,0.4,0.4,1.1-0.1,1.5c-0.4,0.4-1.1,0.4-1.5,0l-5.8-5.8l5.8-5.8c0.4-0.5,1.1-0.6,1.5-0.2
					c0.5,0.4,0.6,1.1,0.2,1.5c-0.1,0.1-0.1,0.1-0.2,0.2l-4.2,4.2L24.7,26z"/>
			</g>
		</g>
	</g>
</g>
</svg>
