<svg width="113" height="30" viewBox="0 0 113 30" fill="none" xmlns="http://www.w3.org/2000/svg">
<g clip-path="url(#clip0_544:64)">
<path d="M5.10972 19.5834V4.63489H0V0.000239071H15.5571V4.63489H10.4474V19.5834H5.10972Z" fill="#051039"/>
<path d="M23.4001 4.3411V8.71474H26.7198C28.0216 8.71474 29.1932 7.89873 29.1932 6.49532C29.1932 5.0265 28.0216 4.3411 26.7198 4.3411H23.4001ZM30.5602 12.2072L36.8416 19.5835H30.2349L24.9622 12.9904H23.4001V19.5835H18.0624V5.29789e-05H26.7849C31.5041 5.29789e-05 34.9866 2.18687 34.9866 6.23412C34.9866 9.04114 33.1965 11.13 30.5602 12.2072" fill="#051039"/>
<path d="M46.0193 11.4237H51.8777L49.0136 4.96121L46.0193 11.4237ZM53.7978 15.6993L44.0664 15.6341L42.244 19.5834H36.5808L46.182 0.000162777H51.9102L61.7391 19.5834H55.5228L53.7978 15.6993Z" fill="#051039"/>
<path d="M70.1354 13.1536L75.4406 5.29789e-05H81.1685L72.9995 19.5835H67.2388L59.1023 5.29789e-05H65.0907L70.1354 13.1536Z" fill="#051039"/>
<path d="M82.9254 19.5834V0.000239071H96.7249V4.63489H88.2631V7.57231H96.2367V11.946H88.2631V14.9488H96.6924V19.5834H82.9254Z" fill="#051039"/>
<path d="M99.9138 19.5834V0.000239071H105.251V14.9488H112.998V19.5834H99.9138Z" fill="#051039"/>
<path d="M6.68596 26.7378V28.6085H8.27785C8.91923 28.6085 9.37075 28.2033 9.37075 27.6437C9.37075 27.1075 8.97866 26.7378 8.36101 26.7378H6.68596ZM6.68596 23.9618V25.5464H8.31354C8.8243 25.5464 9.15695 25.1652 9.15695 24.7482C9.15695 24.2954 8.81233 23.9618 8.24215 23.9618H6.68596ZM5.10583 29.8595V22.7108H8.27785C9.8105 22.7108 10.8087 23.4256 10.8087 24.5458C10.8087 25.32 10.357 25.7608 9.8819 26.0944C10.4284 26.3686 11.0225 26.9046 11.0225 27.8341C11.0225 29.0851 9.94133 29.8595 8.51557 29.8595H5.10583V29.8595Z" fill="#051039"/>
<path d="M14.311 29.8597V27.1909L11.495 22.7108H13.2889L15.1544 25.8086L17.0554 22.7108H18.7544L15.9266 27.1909V29.8597H14.311Z" fill="#051039"/>
<path d="M66.1782 26.8018H68.446L67.2681 24.615L66.1782 26.8018ZM70.1775 29.8664L69.286 28.2932H65.3966L64.5953 29.8664H62.6574L66.531 22.71H68.2906L72.674 29.8664H70.1775V29.8664ZM24.4502 26.8018H26.7753L25.5677 24.615L24.4502 26.8018ZM28.558 29.8664L27.646 28.2932H23.6543L22.8221 29.8664H20.8335L24.8096 22.71H26.6223L31.1279 29.8664H28.558ZM40.1579 25.9972C40.9846 25.9972 41.3831 25.5756 41.3831 25.1024C41.3831 24.6312 41.0285 24.2392 40.1579 24.2392H37.9406V25.9972H40.1579ZM41.823 27.1788L44.7017 29.8664H42.4776C41.9858 29.8664 41.6619 29.7124 41.4038 29.4614L39.4444 27.5548C39.4063 27.5186 39.3498 27.4964 39.2746 27.4964H37.9406V29.8664H35.8585V22.7026H40.3731C42.7137 22.7026 43.7001 23.7596 43.7001 24.926C43.7001 26.284 42.4919 26.9342 41.823 27.1788V27.1788ZM58.048 25.9972C58.8719 25.9972 59.2696 25.5756 59.2696 25.1024C59.2696 24.6312 58.9188 24.2392 58.048 24.2392H55.8297V25.9972H58.048V25.9972ZM59.7115 27.1788L62.592 29.8664H60.3693C59.8743 29.8664 59.5496 29.7124 59.2911 29.4614L57.3337 27.5548C57.2964 27.5186 57.2383 27.4964 57.1647 27.4964H55.8297V29.8664H53.7458V22.7026H58.2618C60.603 22.7026 61.5892 23.7596 61.5892 24.926C61.5892 26.284 60.383 26.9342 59.7115 27.1788V27.1788ZM92.0437 29.8664V22.7026H99.274V24.2392H94.1276V25.4812H99.1949V27.0146H94.1276V28.3302H99.2529V29.8664H92.0437V29.8664ZM45.5064 29.8664V22.7026H52.472V24.2392H47.5911V26.0194H52.3616V27.5548H47.5911V29.8664H45.5064V29.8664ZM90.7821 25.0154C89.8416 24.5492 88.7812 24.1722 87.3753 24.1722C85.6945 24.1722 84.4431 25.0442 84.4431 26.2552C84.4431 27.4964 85.7172 28.375 87.3584 28.375C88.7151 28.375 89.7893 28.0276 90.8497 27.414V29.1872C89.9138 29.652 88.6699 30 87.2712 30C84.4129 30 82.1671 28.5366 82.1671 26.2552C82.1671 24.011 84.4576 22.5694 87.2643 22.5694C88.5885 22.5694 89.7893 22.8216 90.7821 23.2252V25.0154V25.0154ZM79.892 29.8664L74.8831 25.6122V29.8664H73.1231V22.7026H74.6193L79.5591 26.8896V22.7026H81.3205V29.8664H79.892V29.8664ZM31.8218 22.7026H33.9061V29.8664H31.8218V22.7026Z" fill="#051039"/>
<path d="M108.065 22.0438L103.923 28.0485C103.379 28.8395 102.495 29.6015 101.426 29.6815V29.8663H106.031C107.253 29.8663 108.144 29.0691 108.749 28.1905L113 22.0438H108.065Z" fill="#FF0000"/>
</g>
<defs>
<clipPath id="clip0_544:64">
<rect width="113" height="30" fill="white"/>
</clipPath>
</defs>
</svg>
