<?xml version="1.0" encoding="utf-8"?>
<!-- Generator: Adobe Illustrator 25.3.1, SVG Export Plug-In . SVG Version: 6.00 Build 0)  -->
<svg version="1.1" id="Calque_1" xmlns="http://www.w3.org/2000/svg" xmlns:xlink="http://www.w3.org/1999/xlink" x="0px" y="0px"
	 viewBox="0 0 49.2 44" style="enable-background:new 0 0 49.2 44;" xml:space="preserve">
<style type="text/css">
	.st0{fill:#F0F8FF;}
</style>
<g id="Calque_2_1_">
	<g id="Calque_1-2">
		<path class="st0" d="M36.4,2.7c0,1,0,1.8-0.1,2.5c0,0.2-0.1,0.4-0.2,0.5C35.9,5.8,35.7,6,35.5,6C23.7,9.7,12.6,9.7,2,5.9
			C1.9,5.8,1.9,5.7,1.9,5.7c5.8,1,11.7,0.9,17.5-0.1C25.3,4.5,31,2.6,36.4,0L36.4,2.7z M42.9,7.5C43,8,42.9,8.5,42.6,9
			c-0.3,0.4-0.7,0.7-1.2,0.9c-0.4,0.2-1.3,0.4-2.5,0.8C27.7,13.8,15.8,13.2,5,9C4.7,8.9,4.4,8.6,4.2,8.4c13,3.3,25.8,2.1,38.6-3.7
			C42.9,6.1,43,7,42.9,7.5L42.9,7.5z M31.9,19.4l-1.2-0.1h-1c-4,0-7.7,2.5-9,6.3h-3.4V28h3v0.6c0,0.5,0,0.9,0.1,1.4h-3v2.5H21
			l0.3,0.4c0.5,0.9,1,1.7,1.7,2.4c1.8,1.8,4.2,2.8,6.7,2.8l2.3,0l-0.1-2.5l-2,0.1c-1.9,0-3.7-0.7-5-2c-0.3-0.3-0.6-0.6-0.9-1h5.5
			v-2.5h-6.6c-0.1-0.5-0.1-0.9-0.1-1.4v-0.7h6.7v-2.4h-6c0.3-0.7,0.8-1.3,1.3-1.8c1.3-1.3,3.1-2,5-2l2,0.1L31.9,19.4z M49.1,10.4v26
			c0,0.6-0.1,1.1-0.4,1.6c-0.4,0.5-0.8,0.8-1.4,1C32.2,45.7,17,45.7,1.8,39c-0.5-0.2-1-0.5-1.4-1C0.1,37.5,0,36.9,0,36.3V8.4
			c7.7,3.7,16,5.6,24.5,5.7c8.5-0.1,16.8-2,24.5-5.7C49.1,9.7,49.2,10.3,49.1,10.4L49.1,10.4z"/>
	</g>
</g>
</svg>
