<?xml version="1.0" encoding="utf-8"?>
<!-- Generator: Adobe Illustrator 25.4.0, SVG Export Plug-In . SVG Version: 6.00 Build 0)  -->
<svg version="1.1" id="Calque_1" xmlns="http://www.w3.org/2000/svg" xmlns:xlink="http://www.w3.org/1999/xlink" x="0px" y="0px"
	 viewBox="0 0 125 125" style="enable-background:new 0 0 125 125;" xml:space="preserve">
<style type="text/css">
	.st0{fill:#F0F8FF;}
	.st1{fill:#3C3C3B;}
</style>
<g id="Calque_2_00000155837912069341401880000008528247639248390533_">
	<g id="Calque_1-2">
		<circle class="st0" cx="62.5" cy="62.5" r="62.5"/>
		<g id="Calque_2-2">
			<g id="Calque_1-2-2">
				<path class="st1" d="M19.5,76.4l6.6-7.1c2.6-3.2,9.9-3.2,9.9-3.2l28.8,0.7l-21.9,40.8c6.1,0.2,10.4-5,10.4-5l8.2-9.4l4.3,0.1
					c0.9,0,1.6-0.6,1.6-1.5l0,0c0-0.9-0.7-1.6-1.5-1.6h-1.7l6.5-7.5l3.7,0.1c0.9,0.1,1.6-0.6,1.7-1.4c0.1-0.9-0.6-1.6-1.4-1.7
					c-0.1,0-0.2,0-0.3,0h-1.1l10.7-12.2l15,0.4c11.5,0.3,12.6-4.5,12.6-4.5s-0.9-4.9-12.4-5.2l-15-0.4l-10-12.8h1.1
					c0.9,0,1.6-0.7,1.6-1.5c0-0.9-0.7-1.6-1.5-1.6l0,0l-3.6-0.1l-6.1-7.8h1.7c0.9,0,1.6-0.7,1.6-1.5c0-0.8-0.7-1.5-1.5-1.5l0,0
					l-4.3-0.1l-7.7-9.8c0,0-4.1-5.3-10.2-5.5L65,57.5l-28.8-0.7c0,0-7.3-0.3-9.7-3.7l-6.2-7.4c-1.1-2-3.3-3.3-5.6-3.3L18.4,61
					l-4.7,18.4C16,79.5,18.2,78.4,19.5,76.4z"/>
			</g>
		</g>
	</g>
</g>
</svg>
