<svg xmlns="http://www.w3.org/2000/svg" viewBox="0 0 35.02 35.02"><defs><style>.cls-1{fill:#3c3c3b;}</style></defs><g id="Calque_2" data-name="Calque 2"><g id="Calque_1-2" data-name="Calque 1"><g id="Calque_2-2" data-name="Calque 2"><g id="Calque_1-2-2" data-name="Calque 1-2"><path class="cls-1" d="M17.51,35A17.51,17.51,0,1,1,35,17.51,17.51,17.51,0,0,1,17.51,35Zm0-34A16.51,16.51,0,1,0,34,17.53h0A16.52,16.52,0,0,0,17.51,1h0Z"/><path class="cls-1" d="M26.05,12.22a7,7,0,0,1-2,.55,3.47,3.47,0,0,0,1.58-1.93,7.4,7.4,0,0,1-2.22.85,3.5,3.5,0,0,0-6,2.39,3.57,3.57,0,0,0,.09.8,9.89,9.89,0,0,1-7.2-3.66A3.4,3.4,0,0,0,9.82,13a3.51,3.51,0,0,0,1.56,2.91,3.54,3.54,0,0,1-1.59-.44h0a3.51,3.51,0,0,0,2.84,3.42,3.2,3.2,0,0,1-.92.13,3.68,3.68,0,0,1-.66-.06,3.48,3.48,0,0,0,3.26,2.42A7.05,7.05,0,0,1,10,22.86c-.28,0-.55,0-.83,0a9.94,9.94,0,0,0,15.3-8.37V14a7,7,0,0,0,1.75-1.81"/></g></g></g></g></svg>