<?xml version="1.0" encoding="utf-8"?>
<!-- Generator: Adobe Illustrator 25.3.1, SVG Export Plug-In . SVG Version: 6.00 Build 0)  -->
<svg version="1.1" id="Calque_1" xmlns="http://www.w3.org/2000/svg" xmlns:xlink="http://www.w3.org/1999/xlink" x="0px" y="0px"
	 viewBox="0 0 39.2 51.5" style="enable-background:new 0 0 39.2 51.5;" xml:space="preserve">
<style type="text/css">
	.st0{fill:#AD2336;}
</style>
<g id="Calque_2_1_">
	<g id="Calque_1-2">
		<path class="st0" d="M36.9,51.5c-0.6,0-1.2-0.3-1.6-0.7L19.6,34.5L3.9,50.8c-0.9,0.9-2.3,0.9-3.2,0.1c-0.4-0.4-0.7-1-0.7-1.5V2.3
			C0,1,1,0,2.2,0c0,0,0,0,0,0h34.7c1.2,0,2.3,1,2.3,2.2c0,0,0,0,0,0v47C39.1,50.5,38.1,51.5,36.9,51.5L36.9,51.5z"/>
	</g>
</g>
</svg>
