<svg xmlns="http://www.w3.org/2000/svg" viewBox="0 0 36 36"><defs><style>.cls-1{fill:#3c3c3b;}</style></defs><g id="Calque_2" data-name="Calque 2"><g id="Calque_1-2" data-name="Calque 1"><g id="Calque_2-2" data-name="Calque 2"><g id="Calque_1-2-2" data-name="Calque 1-2"><path class="cls-1" d="M18,36A18,18,0,1,1,36,18h0A18,18,0,0,1,18,36ZM18,1A17,17,0,1,0,35,18h0A17,17,0,0,0,18,1h0Z"/><path class="cls-1" d="M13.89,15.11h1.76V13.4a4.58,4.58,0,0,1,.57-2.64A3.11,3.11,0,0,1,19,9.48a10.79,10.79,0,0,1,3.15.32l-.45,2.6a5.67,5.67,0,0,0-1.42-.21c-.68,0-1.29.25-1.29.93v2h2.8l-.19,2.54H19V26.5h-3.3V17.65H13.89Z"/></g></g></g></g></svg>