<svg xmlns="http://www.w3.org/2000/svg" viewBox="0 0 108 108"><defs><style>.cls-1{fill:#f0f8ff;}.cls-2{fill:#3c3c3b;}</style></defs><g id="Calque_2" data-name="Calque 2"><g id="Calque_1-2" data-name="Calque 1"><circle class="cls-1" cx="54" cy="54" r="54"/><g id="Calque_2-2" data-name="Calque 2"><g id="Calque_1-2-2" data-name="Calque 1-2"><path class="cls-2" d="M93.75,55.75,56.24,18.2h0a3.19,3.19,0,0,0-4.43,0L14.2,55.75a3.05,3.05,0,0,0-.12,4.32l0,0,.09.09a3.13,3.13,0,0,0,4.42,0h0l6.43-6.5V83.89A3.14,3.14,0,0,0,28.18,87H79.85a3.1,3.1,0,0,0,3.1-3.1V53.72l6.46,6.39a3.13,3.13,0,0,0,4.43-4.43h0ZM30.88,50.91l23.38-24L77.06,50.5Z"/></g></g></g></g></svg>