<svg xmlns="http://www.w3.org/2000/svg" viewBox="0 0 43.2 43.2"><defs><style>.cls-1{fill:#3c3c3b;}</style></defs><g id="Calque_2" data-name="Calque 2"><g id="Calque_1-2" data-name="Calque 1"><path class="cls-1" d="M21.55,0a21.6,21.6,0,1,0,.11,0Zm0,41.07A19.41,19.41,0,1,1,41,21.66,19.41,19.41,0,0,1,21.55,41.07Z"/><path class="cls-1" d="M22.9,30c-.45.56-.9.9-1.24.9a.37.37,0,0,1-.33-.12c-.12,0-.12-.22-.12-.44a6.08,6.08,0,0,1,.34-1.46c.11-.34.23-.9.45-1.69l2.58-9.53L23.12,18a22.2,22.2,0,0,1-2.58.34c-1.23.11-2.13.22-2.8.22v.9a4.43,4.43,0,0,1,1.57.23c.33.11.45.33.45.78v.23c-.12,0-.12.11-.12.22l-2,7.52a10.48,10.48,0,0,1-.33,1.34A10.41,10.41,0,0,0,17.08,31a2.19,2.19,0,0,0,.79,1.68,3.27,3.27,0,0,0,1.68.56,4.37,4.37,0,0,0,3-1.34A31.36,31.36,0,0,0,25,28.61l-.79-.45A18.17,18.17,0,0,1,22.9,30Z"/><path class="cls-1" d="M23.68,9.88a2.21,2.21,0,0,0-1.57.67,2,2,0,0,0-.67,1.57,2.21,2.21,0,0,0,.67,1.57,2,2,0,0,0,1.57.67,2.21,2.21,0,0,0,1.57-.67,2,2,0,0,0,.68-1.57A2.31,2.31,0,0,0,23.68,9.88Z"/></g></g></svg>