<?xml version="1.0" encoding="UTF-8" standalone="no"?>
<!-- Created with Inkscape (http://www.inkscape.org/) -->

<svg
   xmlns:dc="http://purl.org/dc/elements/1.1/"
   xmlns:cc="http://creativecommons.org/ns#"
   xmlns:rdf="http://www.w3.org/1999/02/22-rdf-syntax-ns#"
   xmlns:svg="http://www.w3.org/2000/svg"
   xmlns="http://www.w3.org/2000/svg"
   xmlns:sodipodi="http://sodipodi.sourceforge.net/DTD/sodipodi-0.dtd"
   xmlns:inkscape="http://www.inkscape.org/namespaces/inkscape"
   id="svg4136"
   version="1.1"
   inkscape:version="0.91 r13725"
   xml:space="preserve"
   width="708.2514"
   height="187.49812"
   viewBox="0 0 708.2514 187.49811"
   sodipodi:docname="LOGO-TBAF_RVB.svg"><metadata
     id="metadata4142"><rdf:RDF><cc:Work
         rdf:about=""><dc:format>image/svg+xml</dc:format><dc:type
           rdf:resource="http://purl.org/dc/dcmitype/StillImage" /><dc:title></dc:title></cc:Work></rdf:RDF></metadata><defs
     id="defs4140" /><sodipodi:namedview
     pagecolor="#ffffff"
     bordercolor="#666666"
     borderopacity="1"
     objecttolerance="10"
     gridtolerance="10"
     guidetolerance="10"
     inkscape:pageopacity="0"
     inkscape:pageshadow="2"
     inkscape:window-width="1440"
     inkscape:window-height="900"
     id="namedview4138"
     showgrid="false"
     inkscape:zoom="1"
     inkscape:cx="355.74454"
     inkscape:cy="48.018753"
     inkscape:window-x="0"
     inkscape:window-y="0"
     inkscape:window-maximized="1"
     inkscape:current-layer="g4144"
     fit-margin-top="0"
     fit-margin-left="0"
     fit-margin-right="0"
     fit-margin-bottom="0" /><g
     id="g4144"
     inkscape:groupmode="layer"
     inkscape:label="20151712_LOGO-TBAF_RVB"
     transform="matrix(1.25,0,0,-1.25,-388.34921,730.71798)"><g
       id="g4549"><g
         transform="translate(336.30037,486.65848)"
         id="g4344"><path
           inkscape:connector-curvature="0"
           id="path4346"
           style="fill:#051039;fill-opacity:1;fill-rule:nonzero;stroke:none"
           d="m 0,0 0,74.742 -25.621,0 0,23.173 78.006,0 0,-23.173 -25.621,0 L 26.764,0 0,0 Z" /></g><g
         transform="translate(428.01127,562.86938)"
         id="g4348"><path
           inkscape:connector-curvature="0"
           id="path4350"
           style="fill:#051039;fill-opacity:1;fill-rule:nonzero;stroke:none"
           d="m 0,0 0,-21.868 16.646,0 c 6.527,0 12.402,4.08 12.402,11.097 C 29.048,-3.427 23.173,0 16.646,0 L 0,0 Z m 35.902,-39.33 31.496,-36.881 -33.127,0 -26.438,32.965 -7.833,0 0,-32.965 -26.764,0 0,97.916 43.736,0 c 23.663,0 41.125,-10.934 41.125,-31.17 0,-14.035 -8.976,-24.479 -22.195,-29.865" /></g><g
         transform="translate(541.42777,527.45678)"
         id="g4352"><path
           inkscape:connector-curvature="0"
           id="path4354"
           style="fill:#051039;fill-opacity:1;fill-rule:nonzero;stroke:none"
           d="M 0,0 29.375,0 15.014,32.312 0,0 Z m 39.003,-21.378 -48.795,0.326 -9.138,-19.746 -28.396,0 48.142,97.915 28.722,0 49.284,-97.915 -31.17,0 -8.649,19.42 z" /></g><g
         transform="translate(662.35057,518.80738)"
         id="g4356"><path
           inkscape:connector-curvature="0"
           id="path4358"
           style="fill:#051039;fill-opacity:1;fill-rule:nonzero;stroke:none"
           d="m 0,0 26.601,65.767 28.721,0 -40.961,-97.916 -28.885,0 -40.798,97.916 30.027,0 L 0,0 Z" /></g><g
         transform="translate(726.48147,486.65848)"
         id="g4360"><path
           inkscape:connector-curvature="0"
           id="path4362"
           style="fill:#051039;fill-opacity:1;fill-rule:nonzero;stroke:none"
           d="m 0,0 0,97.915 69.193,0 0,-23.173 -42.429,0 0,-14.687 39.981,0 0,-21.868 -39.981,0 0,-15.014 42.266,0 L 69.03,0 0,0 Z" /></g><g
         transform="translate(811.66407,486.65848)"
         id="g4364"><path
           inkscape:connector-curvature="0"
           id="path4366"
           style="fill:#051039;fill-opacity:1;fill-rule:nonzero;stroke:none"
           d="m 0,0 0,97.915 26.764,0 0,-74.742 38.84,0 L 65.604,0 0,0 Z" /></g><g
         transform="translate(344.20377,450.88648)"
         id="g4368"><path
           inkscape:connector-curvature="0"
           id="path4370"
           style="fill:#051039;fill-opacity:1;fill-rule:nonzero;stroke:none"
           d="m 0,0 0,-9.353 7.982,0 c 3.216,0 5.48,2.026 5.48,4.824 C 13.462,-1.848 11.496,0 8.399,0 L 0,0 Z m 0,13.88 0,-7.923 8.161,0 c 2.561,0 4.229,1.906 4.229,3.991 0,2.264 -1.728,3.932 -4.587,3.932 L 0,13.88 Z m -7.923,-29.488 0,35.743 15.905,0 c 7.685,0 12.69,-3.574 12.69,-9.175 0,-3.871 -2.265,-6.075 -4.647,-7.743 2.74,-1.371 5.719,-4.051 5.719,-8.698 0,-6.255 -5.421,-10.127 -12.57,-10.127 l -17.097,0 z" /></g><g
         transform="translate(382.43737,435.27798)"
         id="g4372"><path
           inkscape:connector-curvature="0"
           id="path4374"
           style="fill:#051039;fill-opacity:1;fill-rule:nonzero;stroke:none"
           d="m 0,0 0,13.344 -14.12,22.4 8.995,0 9.354,-15.489 9.532,15.489 8.519,0 L 8.101,13.344 8.101,0 0,0 Z" /></g><g
         transform="translate(642.50797,450.56688)"
         id="g4376"><path
           inkscape:connector-curvature="0"
           id="path4378"
           style="fill:#051039;fill-opacity:1;fill-rule:nonzero;stroke:none"
           d="M 0,0 11.371,0 5.465,10.934 0,0 Z m 20.053,-15.323 -4.47,7.866 -19.502,0 -4.018,-7.866 -9.717,0 19.423,35.782 8.823,0 21.979,-35.782 -12.518,0 z M -209.231,0 -197.573,0 -203.628,10.934 -209.231,0 Z m 20.597,-15.323 -4.573,7.866 -20.015,0 -4.173,-7.866 -9.971,0 19.937,35.782 9.089,0 22.592,-35.782 -12.886,0 z m 58.164,19.346 c 4.145,0 6.143,2.108 6.143,4.474 0,2.356 -1.778,4.316 -6.143,4.316 l -11.118,0 0,-8.79 11.118,0 z m 8.349,-5.908 14.434,-13.438 -11.152,0 c -2.466,0 -4.09,0.77 -5.384,2.025 l -9.825,9.533 c -0.191,0.181 -0.474,0.292 -0.851,0.292 l -6.689,0 0,-11.85 -10.44,0 0,35.819 22.637,0 c 11.736,0 16.682,-5.285 16.682,-11.117 0,-6.79 -6.058,-10.041 -9.412,-11.264 m 81.355,5.908 c 4.131,0 6.125,2.108 6.125,4.474 0,2.356 -1.759,4.316 -6.125,4.316 l -11.123,0 0,-8.79 11.123,0 z m 8.341,-5.908 14.443,-13.438 -11.145,0 c -2.482,0 -4.11,0.77 -5.406,2.025 l -9.815,9.533 c -0.187,0.181 -0.478,0.292 -0.847,0.292 l -6.694,0 0,-11.85 -10.449,0 0,35.819 22.644,0 c 11.739,0 16.684,-5.285 16.684,-11.117 0,-6.79 -6.048,-10.041 -9.415,-11.264 m 162.119,-13.438 0,35.819 36.254,0 0,-7.683 -25.805,0 0,-6.21 25.408,0 0,-7.667 -25.408,0 0,-6.578 25.699,0 0,-7.681 -36.148,0 z m -233.346,0 0,35.819 34.927,0 0,-7.683 -24.474,0 0,-8.901 23.92,0 0,-7.677 -23.92,0 0,-11.558 -10.453,0 z m 227.02,24.255 c -4.716,2.331 -10.033,4.216 -17.082,4.216 -8.428,0 -14.703,-4.36 -14.703,-10.415 0,-6.206 6.389,-10.599 14.618,-10.599 6.803,0 12.189,1.737 17.506,4.805 l 0,-8.866 c -4.693,-2.324 -10.93,-4.064 -17.943,-4.064 -14.332,0 -25.593,7.317 -25.593,18.724 0,11.221 11.485,18.429 25.558,18.429 6.64,0 12.661,-1.261 17.639,-3.279 l 0,-8.951 z M 68.763,-15.323 43.648,5.948 l 0,-21.271 -8.825,0 0,35.819 7.502,0 24.769,-20.935 0,20.935 8.832,0 0,-35.819 -7.163,0 z m -241.032,35.819 10.451,0 0,-35.819 -10.451,0 0,35.819 z" /></g><g
         transform="translate(852.53447,474.35628)"
         id="g4380"><path
           inkscape:connector-curvature="0"
           id="path4382"
           style="fill:#ff0000;fill-opacity:1;fill-rule:nonzero;stroke:none"
           d="m 0,0 -20.769,-30.023 c -2.726,-3.955 -7.161,-7.765 -12.518,-8.165 l 0,-0.924 23.09,0 c 6.126,0 10.595,3.986 13.627,8.379 L 24.746,0 0,0 Z" /></g></g></g></svg>