<svg id="Calque_1" data-name="Calque 1" xmlns="http://www.w3.org/2000/svg" viewBox="0 0 913.96 210.94"><defs><style>.cls-1{fill:#3c3c3b;}.cls-2{fill:#fff;}</style></defs><g id="Calque_2" data-name="Calque 2"><g id="Calque_1-2" data-name="Calque 1-2"><path class="cls-1" d="M233.53,123.41a18,18,0,1,1,18-18h0A18,18,0,0,1,233.53,123.41Zm0-35a17,17,0,1,0,17,17h0a17,17,0,0,0-17-17h0Z" transform="translate(0.01 0.12)"/><path class="cls-1" d="M229.42,102.52h1.76v-1.71a4.5,4.5,0,0,1,.57-2.64,3.11,3.11,0,0,1,2.73-1.28,10.79,10.79,0,0,1,3.15.32l-.45,2.6a5.74,5.74,0,0,0-1.42-.21c-.68,0-1.29.25-1.29.93v2h2.8l-.19,2.54h-2.6v8.84h-3.3v-8.85h-1.76Z" transform="translate(0.01 0.12)"/><path class="cls-1" d="M76.88,43.74A17.51,17.51,0,1,1,94.39,26.23,17.51,17.51,0,0,1,76.88,43.74Zm0-34A16.51,16.51,0,1,0,93.39,26.25v0A16.52,16.52,0,0,0,76.88,9.72Z" transform="translate(0.01 0.12)"/><path class="cls-1" d="M85.42,20.94a6.91,6.91,0,0,1-2,.55A3.47,3.47,0,0,0,85,19.56a7.4,7.4,0,0,1-2.22.85,3.5,3.5,0,0,0-6,2.39,3.57,3.57,0,0,0,.09.8,9.89,9.89,0,0,1-7.2-3.66,3.4,3.4,0,0,0-.48,1.76,3.51,3.51,0,0,0,1.56,2.91,3.54,3.54,0,0,1-1.59-.44h0A3.51,3.51,0,0,0,72,27.59a3.2,3.2,0,0,1-.92.13,3.68,3.68,0,0,1-.66-.06,3.48,3.48,0,0,0,3.26,2.42,7.05,7.05,0,0,1-4.34,1.5,7.7,7.7,0,0,1-.83,0,9.94,9.94,0,0,0,15.3-8.37V22.7a7,7,0,0,0,1.75-1.81" transform="translate(0.01 0.12)"/><path class="cls-1" d="M498,203l-.33-5.15c-.26-2.2,2.42-5,2.42-5L511,182l7.72,23.49c2.31-2.3,1.93-5.9,1.93-5.9L520,193l1.62-1.62a.82.82,0,0,0,0-1.17h0a.85.85,0,0,0-1.18,0l-.64.65-.5-5.24,1.38-1.39a.82.82,0,0,0,0-1.17h0a.85.85,0,0,0-1.18,0l-.41.41-.82-8.61,5.63-5.64c4.35-4.34,2.9-6.54,2.9-6.54s-2.2-1.45-6.55,2.9l-5.63,5.63-8.62-.82.42-.41a.86.86,0,0,0,0-1.19.85.85,0,0,0-1.18,0l-1.39,1.39-5.24-.5.65-.64a.86.86,0,0,0,0-1.19.85.85,0,0,0-1.18,0l-1.62,1.63-6.62-.63s-3.59-.38-5.89,1.93l23.48,7.72-10.88,10.89s-2.79,2.68-5,2.41l-5.15-.32a3.38,3.38,0,0,0-3.32,1l8.58,5.36L497,206.4A3.38,3.38,0,0,0,498,203Z" transform="translate(0.01 0.12)"/><path class="cls-1" d="M434.32,195.68c-2.54-.22-5.18-.36-7.81-.41v10.59C429.78,205.22,432.64,201.27,434.32,195.68Z" transform="translate(0.01 0.12)"/><path class="cls-1" d="M424.51,193.32v-7.95h-9.4a43.91,43.91,0,0,0,1,8.4C418.92,193.5,421.69,193.32,424.51,193.32Z" transform="translate(0.01 0.12)"/><path class="cls-1" d="M424.51,183.37v-7.9c-2.82-.05-5.63-.19-8.36-.46a37.26,37.26,0,0,0-1,8.41h9.4Z" transform="translate(0.01 0.12)"/><path class="cls-1" d="M424.51,205.9V195.27c-2.64,0-5.27.19-7.81.41C418.38,201.27,421.24,205.22,424.51,205.9Z" transform="translate(0.01 0.12)"/><path class="cls-1" d="M413.11,185.37h-9.18a21.28,21.28,0,0,0,2.91,9.86c2.31-.5,4.77-.91,7.31-1.23A45.63,45.63,0,0,1,413.11,185.37Z" transform="translate(0.01 0.12)"/><path class="cls-1" d="M437.91,185.37a41.76,41.76,0,0,1-1,8.63c2.55.32,5,.73,7.32,1.23a21.43,21.43,0,0,0,2.9-9.86Z" transform="translate(0.01 0.12)"/><path class="cls-1" d="M416.7,173c2.54.23,5.17.37,7.81.41V162.84C421.24,163.52,418.38,167.47,416.7,173Z" transform="translate(0.01 0.12)"/><path class="cls-1" d="M413.11,183.37a41.76,41.76,0,0,1,1-8.63c-2.55-.32-5-.73-7.32-1.23a21.56,21.56,0,0,0-2.91,9.86Z" transform="translate(0.01 0.12)"/><path class="cls-1" d="M426.51,175.47v7.95h9.4a44,44,0,0,0-1-8.41C432.14,175.28,429.33,175.42,426.51,175.47Z" transform="translate(0.01 0.12)"/><path class="cls-1" d="M443.05,197c-2.14-.45-4.37-.82-6.64-1.09a22.93,22.93,0,0,1-4.9,9.22A21.87,21.87,0,0,0,443.05,197Z" transform="translate(0.01 0.12)"/><path class="cls-1" d="M426.51,185.37v7.95c2.82.05,5.63.18,8.36.45a37.68,37.68,0,0,0,1-8.4Z" transform="translate(0.01 0.12)"/><path class="cls-1" d="M436.87,174.74a42.54,42.54,0,0,1,1,8.63H447a21.43,21.43,0,0,0-2.9-9.86A55.42,55.42,0,0,1,436.87,174.74Z" transform="translate(0.01 0.12)"/><path class="cls-1" d="M419.51,205.13a22.42,22.42,0,0,1-4.86-9.22c-2.27.27-4.5.64-6.63,1.09A21.56,21.56,0,0,0,419.51,205.13Z" transform="translate(0.01 0.12)"/><path class="cls-1" d="M426.51,162.84v10.58c2.63,0,5.27-.18,7.81-.41C432.64,167.47,429.78,163.52,426.51,162.84Z" transform="translate(0.01 0.12)"/><path class="cls-1" d="M408,171.74c2.13.46,4.36.82,6.63,1.09a22.07,22.07,0,0,1,4.86-9.22A21.56,21.56,0,0,0,408,171.74Z" transform="translate(0.01 0.12)"/><path class="cls-1" d="M431.51,163.61a22.42,22.42,0,0,1,4.86,9.22c2.31-.27,4.54-.63,6.63-1.09A21.56,21.56,0,0,0,431.51,163.61Z" transform="translate(0.01 0.12)"/><path class="cls-1" d="M596.4,165c0,1,0,1.81-.06,2.48a.84.84,0,0,1-.24.52,1.57,1.57,0,0,1-.52.36q-17.72,5.5-33.58-.17a1.64,1.64,0,0,1-.14-.22,51.63,51.63,0,0,0,17.58-.11,65.74,65.74,0,0,0,17-5.54Zm6.58,4.8a3,3,0,0,1-.33,1.56,2.62,2.62,0,0,1-1.2.93c-.44.16-1.26.42-2.46.76a54,54,0,0,1-34-1.72,2.2,2.2,0,0,1-.82-.63q19.44,5,38.57-3.68c.17,1.39.26,2.32.26,2.77Zm-11,11.9-1.2-.13h-1a9.5,9.5,0,0,0-9,6.33h-3.44v2.46h3V191a10.47,10.47,0,0,0,.06,1.37h-3v2.51h3.68l.28.41a10.18,10.18,0,0,0,1.74,2.38,9.13,9.13,0,0,0,6.72,2.78l2.18-.08-.13-2.49-2,.06a6.86,6.86,0,0,1-5-2,7.51,7.51,0,0,1-.87-1h5.59v-2.51h-6.63a7.83,7.83,0,0,1-.11-1.37v-.68h6.71v-2.45h-6a6.39,6.39,0,0,1,1.31-1.83,6.92,6.92,0,0,1,5-2l2,.13Zm17.2-9v26a2.69,2.69,0,0,1-.38,1.66,3.08,3.08,0,0,1-1.36,1q-22.8,10-45.62,0a3.1,3.1,0,0,1-1.39-1,2.93,2.93,0,0,1-.38-1.69v-27.9a57.85,57.85,0,0,0,24.55,5.73,57,57,0,0,0,24.46-5.71c.14,1.21.17,1.81.17,1.9Z" transform="translate(0.01 0.12)"/><path class="cls-1" d="M664.27,162.63A21.74,21.74,0,1,0,686,184.38h0A21.75,21.75,0,0,0,664.27,162.63Zm0,8.05a1.61,1.61,0,0,1,1.61,1.61v11.15l8.26,4.78a1.6,1.6,0,0,1,.61,2.18h0a1.62,1.62,0,0,1-2.21.58l-9.06-5.24a1.59,1.59,0,0,1-.81-1.38V172.29a1.61,1.61,0,0,1,1.61-1.61Z" transform="translate(0.01 0.12)"/><path class="cls-1" d="M345.92,162.77a21.6,21.6,0,1,0,.11,0Zm0,41.07a19.41,19.41,0,1,1,19.41-19.41A19.41,19.41,0,0,1,345.92,203.84Z" transform="translate(0.01 0.12)"/><path class="cls-1" d="M347.27,192.73c-.45.56-.9.9-1.24.9a.37.37,0,0,1-.33-.12c-.12,0-.12-.22-.12-.44a6.08,6.08,0,0,1,.34-1.46c.11-.34.23-.9.45-1.69l2.58-9.53-1.46.33a22.2,22.2,0,0,1-2.58.34c-1.23.11-2.13.22-2.8.22v.9a4.43,4.43,0,0,1,1.57.23c.33.11.45.33.45.78v.23c-.12,0-.12.11-.12.22l-2,7.52a10.48,10.48,0,0,1-.33,1.34,10.41,10.41,0,0,0-.23,1.24,2.19,2.19,0,0,0,.79,1.68,3.27,3.27,0,0,0,1.68.56,4.37,4.37,0,0,0,3-1.34,31.36,31.36,0,0,0,2.47-3.26l-.79-.45A18.17,18.17,0,0,1,347.27,192.73Z" transform="translate(0.01 0.12)"/><path class="cls-1" d="M348.05,172.65a2.21,2.21,0,0,0-1.57.67,2,2,0,0,0-.67,1.57,2.21,2.21,0,0,0,.67,1.57,2,2,0,0,0,1.57.67,2.21,2.21,0,0,0,1.57-.67,2,2,0,0,0,.68-1.57A2.31,2.31,0,0,0,348.05,172.65Z" transform="translate(0.01 0.12)"/><path class="cls-1" d="M129.78,192.45H132v-9.88H83.77a1.49,1.49,0,0,1-.74-.2,2.13,2.13,0,0,1-.7.18v9.9H84a2.27,2.27,0,0,1,2.28,2.26h0v.18h0a5.7,5.7,0,0,0,1.64,4l.08.1a5.68,5.68,0,0,0,9.65-4.06v-.18a2.23,2.23,0,0,1,2.22-2.24H114a2.25,2.25,0,0,1,2.24,2.26h0V195h0a5.67,5.67,0,0,0,1.67,4l.08.06a5.69,5.69,0,0,0,9.61-4v-.26a2.23,2.23,0,0,1,2.22-2.24h0Zm-7.93.19h0a2.26,2.26,0,1,1-2.26,2.26h0A2.26,2.26,0,0,1,121.85,192.64Zm-30,0h0a2.26,2.26,0,1,1-2.25,2.27h0A2.27,2.27,0,0,1,91.85,192.64Zm42.41,4.3h-2.47a10.25,10.25,0,0,1-2.74,5.13h0a10.19,10.19,0,0,1-14.28.1l-.13-.12a9.9,9.9,0,0,1-2.77-5.16h-10A10.07,10.07,0,0,1,99.15,202h0a10.2,10.2,0,0,1-14.29.1l-.1-.12A10,10,0,0,1,82,196.84H80.05a2.23,2.23,0,0,1-2.28-2.18V180.3A2.26,2.26,0,0,1,80,178h.68l6.15-13a2.19,2.19,0,0,1,2.11-1.43h27.76a2.23,2.23,0,0,1,2,1.29l6.2,13.1h9.39a2.24,2.24,0,0,1,2.24,2.24v14.44a2.21,2.21,0,0,1-2.2,2.22h0Z" transform="translate(0.01 0.12)"/><path class="cls-1" d="M54.52,186.82,29.11,161.38h0a2.14,2.14,0,0,0-3,0L.63,186.82a2.08,2.08,0,0,0-.06,2.94l.06.06a2.14,2.14,0,0,0,3,0L8,185.43v20.45A2.14,2.14,0,0,0,10.11,208h35a2.1,2.1,0,0,0,2.1-2.1V185.44l4.37,4.36a2.12,2.12,0,0,0,3-3h0Zm-42.59-3.28,15.84-16.28,15.44,16Z" transform="translate(0.01 0.12)"/><path class="cls-1" d="M162,192.84l3.78-4.08c1.52-1.84,5.68-1.81,5.68-1.81l16.58.42-12.61,23.45c3.51.09,6-2.87,6-2.87l4.69-5.39,2.47.06a.9.9,0,0,0,.92-.88h0a.91.91,0,0,0-.87-.92h-1l3.72-4.28,2.11.06a.9.9,0,1,0,.05-1.8h-.63l6.12-7,8.57.22c6.61.16,7.25-2.6,7.25-2.6s-.5-2.79-7.11-3l-8.57-.21-5.76-7.34H194a.9.9,0,1,0,0-1.8L192,173l-3.5-4.46h1a.91.91,0,0,0,.93-.88.9.9,0,0,0-.88-.92h0l-2.47-.06-4.41-5.63s-2.37-3.08-5.88-3.17L188.13,182l-16.57-.42s-4.16-.19-5.58-2.1l-3.57-4.26a3.65,3.65,0,0,0-3.22-1.88L161.37,184l-2.72,10.55A3.62,3.62,0,0,0,162,192.84Z" transform="translate(0.01 0.12)"/><path class="cls-1" d="M421,17.19a1.36,1.36,0,0,1-.44,1l-20.2,20.24a1.4,1.4,0,0,1-1,.44,1.36,1.36,0,0,1-1-.44L378.12,18.19a1.36,1.36,0,0,1,0-2L380.29,14a1.35,1.35,0,0,1,1-.43,1.39,1.39,0,0,1,1,.43l17.07,17.07L416.43,14a1.35,1.35,0,0,1,1-.43,1.39,1.39,0,0,1,1,.43l2.17,2.17a1.39,1.39,0,0,1,.43,1Z" transform="translate(0.01 0.12)"/><rect class="cls-1" x="456.85" y="9.68" width="41.66" height="4.17"/><path class="cls-1" d="M498.5,14.94H456.84a1.22,1.22,0,0,1-1.22-1.21V9.56a1.22,1.22,0,0,1,1.22-1.21H498.5a1.21,1.21,0,0,1,1.21,1.21v4.17A1.21,1.21,0,0,1,498.5,14.94Zm-40.45-2.42h39.23V10.78H458.05Z" transform="translate(0.01 0.12)"/><rect class="cls-1" x="456.85" y="24.26" width="41.66" height="4.17"/><path class="cls-1" d="M498.5,29.52H456.84a1.22,1.22,0,0,1-1.22-1.21V24.14a1.22,1.22,0,0,1,1.22-1.21H498.5a1.21,1.21,0,0,1,1.21,1.21v4.17A1.21,1.21,0,0,1,498.5,29.52ZM458.05,27.1h39.23V25.36H458.05Z" transform="translate(0.01 0.12)"/><rect class="cls-1" x="456.85" y="38.85" width="41.66" height="4.17"/><path class="cls-1" d="M498.5,44.11H456.84a1.22,1.22,0,0,1-1.22-1.22h0V38.73a1.22,1.22,0,0,1,1.22-1.22H498.5a1.22,1.22,0,0,1,1.21,1.22v4.16A1.22,1.22,0,0,1,498.5,44.11Zm-40.45-2.43h39.23V39.94H458.05Z" transform="translate(0.01 0.12)"/><path class="cls-1" d="M651.59,51.93A2.24,2.24,0,0,1,650,51.2L634.28,35,618.62,51.3a2.29,2.29,0,0,1-3.19.09,2.65,2.65,0,0,1-.73-1.54V2.74A2.25,2.25,0,0,1,616.93.47h34.68a2.25,2.25,0,0,1,2.28,2.22v47a2.37,2.37,0,0,1-2.28,2.28Z" transform="translate(0.01 0.12)"/><path class="cls-1" d="M567.19,18.72a18.78,18.78,0,1,0-7.26,14.77l1.61,1.61-2.34,2.34,15,15,8-8-15-15-2.34,2.34-1.61-1.61A18.56,18.56,0,0,0,567.19,18.72Zm-18.72,14a14,14,0,1,1,14-14,14,14,0,0,1-14,14Z" transform="translate(0.01 0.12)"/><path class="cls-1" d="M316.5,4.45H277.31a2.2,2.2,0,0,0-2.18,2.18V45.82A2.19,2.19,0,0,0,277.31,48H316.5a2.17,2.17,0,0,0,2.18-2.16V6.63A2.19,2.19,0,0,0,316.5,4.45Zm-16.65,26A1.09,1.09,0,1,1,298.32,32l-5.77-5.76,5.77-5.77A1.09,1.09,0,1,1,300,21.81a1.14,1.14,0,0,1-.19.19l-4.22,4.23Z" transform="translate(0.01 0.12)"/><path class="cls-2" d="M299.85,20.46a1.09,1.09,0,0,0-1.53,0l-5.77,5.77L298.32,32a1.08,1.08,0,1,0,1.53-1.53h0l-4.22-4.23L299.85,22a1.08,1.08,0,0,0,0-1.53Z" transform="translate(0.01 0.12)"/><path class="cls-1" d="M323.42,6.63V45.82A2.17,2.17,0,0,0,325.58,48h39.21A2.17,2.17,0,0,0,367,45.87V6.63a2.18,2.18,0,0,0-2.17-2.18h-39.2a2.19,2.19,0,0,0-2.21,2.15Zm23,19.6L342.25,22a1.09,1.09,0,1,1,1.39-1.68.93.93,0,0,1,.14.14l5.77,5.77L343.78,32a1.08,1.08,0,0,1-1.53-1.53h0Z" transform="translate(0.01 0.12)"/><path class="cls-2" d="M342.25,20.46a1.09,1.09,0,0,1,1.53,0l5.77,5.77L343.78,32a1.08,1.08,0,0,1-1.53-1.53h0l4.21-4.23L342.25,22a1.08,1.08,0,0,1,0-1.53Z" transform="translate(0.01 0.12)"/><path class="cls-1" d="M894.29,204.55a1.27,1.27,0,0,1-1.79-1.79l18.4-18.39L892.5,166a1.27,1.27,0,0,1,1.64-1.94c.06.05.1.1.15.15l19.28,19.29a1.24,1.24,0,0,1,0,1.75l0,0Z" transform="translate(0.01 0.12)"/></g></g></svg>