<?xml version="1.0" encoding="utf-8"?>
<!-- Generator: Adobe Illustrator 25.3.1, SVG Export Plug-In . SVG Version: 6.00 Build 0)  -->
<svg version="1.1" id="Calque_1" xmlns="http://www.w3.org/2000/svg" xmlns:xlink="http://www.w3.org/1999/xlink" x="0px" y="0px"
	 viewBox="0 0 52.6 52.6" style="enable-background:new 0 0 52.6 52.6;" xml:space="preserve">
<style type="text/css">
	.st0{fill:#AD2336;}
</style>
<g id="Calque_2_1_">
	<g id="Calque_1-2">
		<path class="st0" d="M37.6,18.8C37.6,8.5,29.2,0,18.8,0S0,8.3,0,18.7s8.3,18.8,18.7,18.8c4.2,0,8.3-1.4,11.6-3.9l1.6,1.6l-2.3,2.3
			l15,15l8-8l-15-15l-2.3,2.3l-1.6-1.6C36.2,27,37.6,23,37.6,18.8z M18.8,32.8c-7.7,0-14-6.3-14-14s6.3-14,14-14s14,6.3,14,14
			S26.6,32.8,18.8,32.8z"/>
	</g>
</g>
</svg>
