<?xml version="1.0" encoding="utf-8"?>
<!-- Generator: Adobe Illustrator 25.3.1, SVG Export Plug-In . SVG Version: 6.00 Build 0)  -->
<svg version="1.1" id="Calque_1" xmlns="http://www.w3.org/2000/svg" xmlns:xlink="http://www.w3.org/1999/xlink" x="0px" y="0px"
	 viewBox="0 0 43.2 43.1" style="enable-background:new 0 0 43.2 43.1;" xml:space="preserve">
<style type="text/css">
	.st0{fill:#F0F8FF;}
</style>
<g id="Calque_2_1_">
	<g id="Calque_1-2">
		<path class="st0" d="M30.4,32.8c-2.5-0.2-5.2-0.4-7.8-0.4V43C25.9,42.4,28.8,38.4,30.4,32.8z"/>
		<path class="st0" d="M20.6,30.5v-7.9h-9.4c0.1,2.8,0.4,5.6,1,8.4C15,30.7,17.8,30.5,20.6,30.5z"/>
		<path class="st0" d="M20.6,20.5v-7.9c-2.8-0.1-5.6-0.2-8.4-0.5c-0.7,2.8-1,5.6-1,8.4L20.6,20.5L20.6,20.5z"/>
		<path class="st0" d="M20.6,43.1V32.4c-2.6,0-5.3,0.2-7.8,0.4C14.5,38.4,17.4,42.4,20.6,43.1z"/>
		<path class="st0" d="M9.2,22.5H0.1c0.2,3.5,1.2,6.9,3,9.9c2.3-0.5,4.8-0.9,7.3-1.2C9.7,28.3,9.3,25.4,9.2,22.5z"/>
		<path class="st0" d="M34,22.5c0,2.9-0.4,5.8-1,8.6c2.5,0.3,5,0.7,7.3,1.2c1.8-3,2.7-6.4,2.9-9.9L34,22.5z"/>
		<path class="st0" d="M12.8,10.2c2.5,0.2,5.2,0.4,7.8,0.4V0C17.4,0.7,14.5,4.6,12.8,10.2z"/>
		<path class="st0" d="M9.2,20.5c0-2.9,0.4-5.8,1-8.6c-2.6-0.3-5-0.7-7.3-1.2c-1.8,3-2.7,6.4-2.9,9.9H9.2z"/>
		<path class="st0" d="M22.6,12.6v7.9H32c-0.1-2.8-0.4-5.6-1-8.4C28.3,12.4,25.5,12.6,22.6,12.6z"/>
		<path class="st0" d="M39.2,34.2c-2.1-0.5-4.4-0.8-6.6-1.1c-0.9,3.4-2.6,6.6-4.9,9.2C32.3,40.9,36.3,38.1,39.2,34.2z"/>
		<path class="st0" d="M22.6,22.5v8c2.8,0,5.6,0.2,8.4,0.5c0.6-2.8,1-5.6,1-8.4L22.6,22.5z"/>
		<path class="st0" d="M33,11.9c0.6,2.8,1,5.7,1,8.6h9.1c-0.2-3.5-1.1-6.9-2.9-9.9C37.8,11.2,35.4,11.7,33,11.9z"/>
		<path class="st0" d="M15.6,42.3c-2.3-2.6-4-5.8-4.9-9.2c-2.3,0.3-4.5,0.6-6.6,1.1C7,38.1,11,40.9,15.6,42.3z"/>
		<path class="st0" d="M22.6,0v10.6c2.6,0,5.3-0.2,7.8-0.4C28.8,4.6,25.9,0.7,22.6,0z"/>
		<path class="st0" d="M4.1,8.9c2.1,0.5,4.4,0.8,6.6,1.1c0.9-3.4,2.5-6.6,4.9-9.2C11,2.1,6.9,5,4.1,8.9z"/>
		<path class="st0" d="M27.6,0.8c2.3,2.7,4,5.8,4.9,9.2c2.3-0.3,4.5-0.6,6.6-1.1C36.3,5,32.3,2.1,27.6,0.8z"/>
	</g>
</g>
</svg>
