<svg xmlns="http://www.w3.org/2000/svg" viewBox="0 0 913.94 210.82"><defs><style>.cls-1{fill:#3c3c3b;}.cls-2{fill:#fff;}</style></defs><g id="Calque_2" data-name="Calque 2"><g id="Calque_1-2" data-name="Calque 1"><path class="cls-1" d="M19.35,44.24a18,18,0,1,1,18-18A18,18,0,0,1,19.35,44.24Zm0-35a17,17,0,1,0,17,17A17,17,0,0,0,19.35,9.22Z"/><path class="cls-1" d="M15.24,23.35H17V21.64A4.57,4.57,0,0,1,17.57,19a3.13,3.13,0,0,1,2.73-1.28,10.89,10.89,0,0,1,3.15.32L23,20.64a6,6,0,0,0-1.42-.21c-.68,0-1.29.25-1.29.93v2h2.8l-.19,2.54H20.3v8.84H17V25.89H15.24Z"/><path class="cls-1" d="M76.88,43.74A17.51,17.51,0,1,1,94.39,26.23,17.53,17.53,0,0,1,76.88,43.74Zm0-34A16.51,16.51,0,1,0,93.39,26.23,16.52,16.52,0,0,0,76.88,9.72Z"/><path class="cls-1" d="M85.42,20.94a6.8,6.8,0,0,1-2,.55A3.48,3.48,0,0,0,85,19.56a7.2,7.2,0,0,1-2.22.85,3.5,3.5,0,0,0-6,2.39,3.57,3.57,0,0,0,.09.8,9.92,9.92,0,0,1-7.2-3.66,3.42,3.42,0,0,0-.48,1.76,3.5,3.5,0,0,0,1.56,2.91,3.56,3.56,0,0,1-1.59-.44v0a3.5,3.5,0,0,0,2.81,3.42,3.15,3.15,0,0,1-.92.13,3.52,3.52,0,0,1-.66-.06,3.48,3.48,0,0,0,3.26,2.42,7,7,0,0,1-4.34,1.5,7.55,7.55,0,0,1-.83-.05,9.94,9.94,0,0,0,15.3-8.37c0-.16,0-.31,0-.46a7,7,0,0,0,1.75-1.81"/><path class="cls-1" d="M498,203l-.33-5.15c-.26-2.2,2.42-5,2.42-5L511,182l7.72,23.49c2.31-2.3,1.93-5.9,1.93-5.9L520,193l1.62-1.62a.83.83,0,0,0,0-1.18.85.85,0,0,0-1.18,0l-.64.65-.5-5.24,1.38-1.39a.83.83,0,0,0,0-1.18.85.85,0,0,0-1.18,0l-.41.41-.82-8.61,5.63-5.64c4.35-4.34,2.9-6.54,2.9-6.54s-2.2-1.45-6.55,2.9l-5.63,5.63-8.62-.82.42-.41a.86.86,0,0,0,0-1.19.85.85,0,0,0-1.18,0l-1.39,1.39-5.24-.5.65-.64a.86.86,0,0,0,0-1.19.85.85,0,0,0-1.18,0l-1.62,1.63-6.62-.63s-3.59-.38-5.89,1.93l23.48,7.72-10.88,10.89s-2.79,2.68-5,2.41l-5.15-.32a3.38,3.38,0,0,0-3.32,1l8.58,5.36,5.36,8.58A3.38,3.38,0,0,0,498,203Z"/><path class="cls-1" d="M434.32,195.68c-2.54-.22-5.18-.36-7.81-.41v10.59C429.78,205.22,432.64,201.27,434.32,195.68Z"/><path class="cls-1" d="M424.51,193.32v-7.95h-9.4a43.75,43.75,0,0,0,1,8.4C418.92,193.5,421.69,193.32,424.51,193.32Z"/><path class="cls-1" d="M424.51,183.37v-7.9c-2.82-.05-5.63-.19-8.36-.46a37.16,37.16,0,0,0-1,8.41h9.4Z"/><path class="cls-1" d="M424.51,205.9V195.27c-2.64,0-5.27.19-7.81.41C418.38,201.27,421.24,205.22,424.51,205.9Z"/><path class="cls-1" d="M413.11,185.37h-9.18a21.29,21.29,0,0,0,2.91,9.86c2.31-.5,4.77-.91,7.31-1.23A45.72,45.72,0,0,1,413.11,185.37Z"/><path class="cls-1" d="M437.91,185.37a42,42,0,0,1-1,8.63c2.55.32,5,.73,7.32,1.23a21.4,21.4,0,0,0,2.9-9.86Z"/><path class="cls-1" d="M416.7,173c2.54.23,5.17.37,7.81.41V162.84C421.24,163.52,418.38,167.47,416.7,173Z"/><path class="cls-1" d="M413.11,183.37a42,42,0,0,1,1-8.63c-2.55-.32-5-.73-7.32-1.23a21.53,21.53,0,0,0-2.91,9.86Z"/><path class="cls-1" d="M426.51,175.47v7.95h9.4a43.86,43.86,0,0,0-1-8.41C432.14,175.28,429.33,175.42,426.51,175.47Z"/><path class="cls-1" d="M443.05,197c-2.14-.45-4.37-.82-6.64-1.09a22.93,22.93,0,0,1-4.9,9.22A21.91,21.91,0,0,0,443.05,197Z"/><path class="cls-1" d="M426.51,185.37v7.95c2.82.05,5.63.18,8.36.45a37.64,37.64,0,0,0,1-8.4Z"/><path class="cls-1" d="M436.87,174.74a42.75,42.75,0,0,1,1,8.63H447a21.4,21.4,0,0,0-2.9-9.86A56.76,56.76,0,0,1,436.87,174.74Z"/><path class="cls-1" d="M419.51,205.13a22.42,22.42,0,0,1-4.86-9.22c-2.27.27-4.5.64-6.63,1.09A21.59,21.59,0,0,0,419.51,205.13Z"/><path class="cls-1" d="M426.51,162.84v10.58c2.63,0,5.27-.18,7.81-.41C432.64,167.47,429.78,163.52,426.51,162.84Z"/><path class="cls-1" d="M408,171.74c2.13.46,4.36.82,6.63,1.09a22.17,22.17,0,0,1,4.86-9.22A21.59,21.59,0,0,0,408,171.74Z"/><path class="cls-1" d="M431.51,163.61a22.42,22.42,0,0,1,4.86,9.22c2.31-.27,4.54-.63,6.63-1.09A21.59,21.59,0,0,0,431.51,163.61Z"/><path class="cls-1" d="M596.4,165c0,1,0,1.81-.06,2.48a.88.88,0,0,1-.24.52,1.63,1.63,0,0,1-.52.36q-17.72,5.51-33.58-.17a2.34,2.34,0,0,1-.14-.22,51.64,51.64,0,0,0,17.58-.11,65.55,65.55,0,0,0,17-5.54Zm6.58,4.8a3,3,0,0,1-.33,1.56,2.59,2.59,0,0,1-1.2.93c-.44.16-1.26.42-2.46.76a54,54,0,0,1-34-1.72,2.13,2.13,0,0,1-.82-.63q19.44,5,38.57-3.68C602.91,168.41,603,169.34,603,169.79Zm-11,11.9-1.2-.13c-.26,0-.6,0-1,0a9.5,9.5,0,0,0-9,6.33h-3.44v2.46h3V191c0,.46,0,.91.06,1.37h-3v2.51h3.68l.28.41a10.05,10.05,0,0,0,1.74,2.38,9.13,9.13,0,0,0,6.72,2.78l2.18-.08-.13-2.49-2.05.06a6.85,6.85,0,0,1-5-2,8.68,8.68,0,0,1-.87-1h5.59v-2.51h-6.63a8,8,0,0,1-.11-1.37l0-.68h6.71v-2.45h-6a6.28,6.28,0,0,1,1.31-1.83,6.92,6.92,0,0,1,5-2l2,.13Zm17.2-9v13q0,7.75,0,13a2.71,2.71,0,0,1-.38,1.66,3.1,3.1,0,0,1-1.36,1q-22.8,10-45.62,0a3.14,3.14,0,0,1-1.39-1,2.93,2.93,0,0,1-.38-1.69q0-5.73,0-13.82,0-9.33,0-14.08a57.91,57.91,0,0,0,24.55,5.73,57,57,0,0,0,24.46-5.71C609.2,172,609.23,172.6,609.23,172.69Z"/><path class="cls-1" d="M664.27,162.63A21.74,21.74,0,1,0,686,184.37,21.74,21.74,0,0,0,664.27,162.63Zm0,8.05a1.61,1.61,0,0,1,1.61,1.61v11.15l8.26,4.78a1.6,1.6,0,0,1,.6,2.19,1.62,1.62,0,0,1-2.21.58l-9.06-5.24a1.58,1.58,0,0,1-.81-1.38V172.29A1.61,1.61,0,0,1,664.27,170.68Z"/><path class="cls-1" d="M345.92,162.77a21.6,21.6,0,1,0,21.65,21.66A21.6,21.6,0,0,0,345.92,162.77Zm0,41.07a19.41,19.41,0,1,1,19.41-19.41A19.42,19.42,0,0,1,345.92,203.84Z"/><path class="cls-1" d="M347.27,192.73c-.45.56-.9.9-1.24.9a.38.38,0,0,1-.33-.12c-.12,0-.12-.22-.12-.44a6.19,6.19,0,0,1,.34-1.46c.11-.34.23-.9.45-1.69l2.58-9.53-1.46.33a22,22,0,0,1-2.58.34c-1.23.11-2.13.22-2.8.22v.9a4.46,4.46,0,0,1,1.57.23c.33.11.45.33.45.78v.23c-.12,0-.12.11-.12.22l-2,7.52a11.38,11.38,0,0,1-.33,1.34,11,11,0,0,0-.23,1.24,2.2,2.2,0,0,0,.79,1.68,3.29,3.29,0,0,0,1.68.56,4.41,4.41,0,0,0,3-1.34,32.62,32.62,0,0,0,2.47-3.26l-.79-.45A19,19,0,0,1,347.27,192.73Z"/><path class="cls-1" d="M348.05,172.65a2.21,2.21,0,0,0-1.57.67,2,2,0,0,0-.67,1.57,2.21,2.21,0,0,0,.67,1.57,2,2,0,0,0,1.57.67,2.21,2.21,0,0,0,1.57-.67,2,2,0,0,0,.68-1.57,2.31,2.31,0,0,0-2.25-2.24Z"/><path class="cls-1" d="M129.78,192.45H132v-9.88H83.77a1.57,1.57,0,0,1-.74-.2,2.13,2.13,0,0,1-.7.18v9.9H84a2.27,2.27,0,0,1,2.28,2.27l0,.18h0a5.68,5.68,0,0,0,1.64,4L88,199a5.74,5.74,0,0,0,8-.06,5.73,5.73,0,0,0,1.65-4v-.18a2.23,2.23,0,0,1,2.25-2.24h0v0h14.1a2.25,2.25,0,0,1,2.24,2.27v.18h0a5.67,5.67,0,0,0,1.67,4l.08.06a5.6,5.6,0,0,0,3.93,1.57,5.63,5.63,0,0,0,5.68-5.66v-.18a2.23,2.23,0,0,1,2.25-2.24h0v0Zm-7.93.19h0a2.26,2.26,0,1,1-2.26,2.26,2.26,2.26,0,0,1,2.26-2.26Zm-30,0h0a2.26,2.26,0,1,1-2.25,2.26,2.26,2.26,0,0,1,2.25-2.26Zm42.41,4.3h-2.47a10.19,10.19,0,0,1-2.74,5.13l0,0,0,0a10.19,10.19,0,0,1-14.28.1l-.13-.12a9.94,9.94,0,0,1-2.77-5.16h-10a10.09,10.09,0,0,1-2.72,5.13l0,0v0a10.2,10.2,0,0,1-14.29.1l-.1-.12a10,10,0,0,1-2.79-5.16H80.05a2.23,2.23,0,0,1-2.28-2.22V180.3A2.26,2.26,0,0,1,80.05,178h.62l6.15-13a2.19,2.19,0,0,1,2.11-1.43h27.76a2.23,2.23,0,0,1,2,1.29l6.2,13.1h9.39a2.24,2.24,0,0,1,2.24,2.26v14.42a2.21,2.21,0,0,1-2.24,2.22Z"/><path class="cls-1" d="M54.52,186.82,29.11,161.38l0,0a2.14,2.14,0,0,0-3,0L.63,186.82a2.08,2.08,0,0,0,0,3,2.13,2.13,0,0,0,3,0L8,185.43v20.45A2.13,2.13,0,0,0,10.11,208h35a2.1,2.1,0,0,0,2.1-2.12V185.44l4.37,4.36a2.11,2.11,0,0,0,3-3Zm-42.59-3.28,15.84-16.28,15.44,16Z"/><path class="cls-1" d="M162,192.84l3.78-4.08c1.52-1.84,5.68-1.81,5.68-1.81l16.58.42-12.61,23.45c3.51.09,6-2.87,6-2.87l4.69-5.39,2.47.06a.9.9,0,0,0,.92-.88.91.91,0,0,0-.87-.92l-1,0,3.72-4.28,2.11.06a.9.9,0,0,0,.05-1.8l-.63,0,6.12-7,8.57.22c6.61.16,7.25-2.6,7.25-2.6s-.5-2.79-7.11-3l-8.57-.21-5.76-7.34.63,0a.9.9,0,0,0,.05-1.8L192,173l-3.5-4.46,1,0a.92.92,0,0,0,.93-.88.9.9,0,0,0-.88-.92l-2.47-.06-4.41-5.63s-2.37-3.08-5.88-3.17L188.13,182l-16.57-.42s-4.16-.19-5.58-2.1l-3.57-4.26a3.66,3.66,0,0,0-3.22-1.88L161.37,184l-2.72,10.55A3.64,3.64,0,0,0,162,192.84Z"/><path class="cls-1" d="M421,17.19a1.37,1.37,0,0,1-.44,1L400.36,38.43a1.41,1.41,0,0,1-1,.44,1.37,1.37,0,0,1-1-.44L378.12,18.19a1.37,1.37,0,0,1-.44-1,1.39,1.39,0,0,1,.44-1L380.29,14a1.36,1.36,0,0,1,1-.43,1.38,1.38,0,0,1,1,.43l17.07,17.07L416.43,14a1.36,1.36,0,0,1,1-.43,1.38,1.38,0,0,1,1,.43l2.17,2.17a1.38,1.38,0,0,1,.43,1Z"/><rect class="cls-1" x="456.84" y="9.56" width="41.66" height="4.17"/><path class="cls-1" d="M498.5,14.94H456.84a1.22,1.22,0,0,1-1.22-1.21V9.56a1.22,1.22,0,0,1,1.22-1.21H498.5a1.21,1.21,0,0,1,1.21,1.21v4.17A1.21,1.21,0,0,1,498.5,14.94Zm-40.45-2.42h39.23V10.78H458.05Z"/><rect class="cls-1" x="456.84" y="24.14" width="41.66" height="4.17"/><path class="cls-1" d="M498.5,29.52H456.84a1.22,1.22,0,0,1-1.22-1.21V24.14a1.22,1.22,0,0,1,1.22-1.21H498.5a1.21,1.21,0,0,1,1.21,1.21v4.17A1.21,1.21,0,0,1,498.5,29.52ZM458.05,27.1h39.23V25.36H458.05Z"/><rect class="cls-1" x="456.84" y="38.73" width="41.66" height="4.17"/><path class="cls-1" d="M498.5,44.11H456.84a1.22,1.22,0,0,1-1.22-1.22V38.73a1.22,1.22,0,0,1,1.22-1.22H498.5a1.22,1.22,0,0,1,1.21,1.22v4.16A1.22,1.22,0,0,1,498.5,44.11Zm-40.45-2.43h39.23V39.94H458.05Z"/><path class="cls-1" d="M651.59,51.93A2.27,2.27,0,0,1,650,51.2L634.28,35l-15.66,16.3a2.28,2.28,0,0,1-3.19.09,2.66,2.66,0,0,1-.73-1.54V2.74A2.25,2.25,0,0,1,617,.47h34.61a2.25,2.25,0,0,1,2.28,2.27V49.65a2.38,2.38,0,0,1-2.28,2.28Z"/><path class="cls-1" d="M567.19,18.72a18.78,18.78,0,1,0-7.26,14.77l1.61,1.61-2.34,2.34,15,15,8-8-15-15-2.34,2.34-1.61-1.61A18.58,18.58,0,0,0,567.19,18.72Zm-18.72,14a14,14,0,1,1,14-14A14.06,14.06,0,0,1,548.47,32.76Z"/><path class="cls-1" d="M316.5,4.45H277.31a2.19,2.19,0,0,0-2.18,2.18V45.82A2.18,2.18,0,0,0,277.31,48H316.5a2.17,2.17,0,0,0,2.18-2.18V6.63A2.18,2.18,0,0,0,316.5,4.45Zm-16.65,26A1.08,1.08,0,1,1,298.32,32l-5.77-5.76,5.77-5.77A1.09,1.09,0,1,1,299.85,22l-4.22,4.23Z"/><path class="cls-2" d="M299.85,20.46a1.09,1.09,0,0,0-1.53,0l-5.77,5.77L298.32,32a1.08,1.08,0,1,0,1.53-1.53l-4.22-4.23L299.85,22A1.08,1.08,0,0,0,299.85,20.46Z"/><path class="cls-1" d="M323.42,6.63V45.82A2.17,2.17,0,0,0,325.59,48h39.2A2.17,2.17,0,0,0,367,45.82V6.63a2.18,2.18,0,0,0-2.17-2.18h-39.2A2.18,2.18,0,0,0,323.42,6.63Zm23,19.6L342.25,22a1.09,1.09,0,1,1,1.53-1.54l5.77,5.77L343.78,32a1.08,1.08,0,1,1-1.53-1.53Z"/><path class="cls-2" d="M342.25,20.46a1.09,1.09,0,0,1,1.53,0l5.77,5.77L343.78,32a1.08,1.08,0,1,1-1.53-1.53l4.21-4.23L342.25,22A1.08,1.08,0,0,1,342.25,20.46Z"/><path class="cls-1" d="M894.29,204.55a1.27,1.27,0,0,1-1.79,0,1.27,1.27,0,0,1,0-1.79l18.4-18.39L892.5,166a1.27,1.27,0,1,1,1.79-1.79l19.28,19.29a1.24,1.24,0,0,1,0,1.78Z"/></g></g></svg>